<mxfile host="app.diagrams.net" modified="2022-10-06T07:46:35.339Z" agent="5.0 (Windows NT 10.0; Win64; x64) AppleWebKit/537.36 (KHTML, like Gecko) Chrome/105.0.0.0 Safari/537.36" etag="h5mz9Pzvj0lz_LbSsg-A" version="20.3.7" type="github">
  <diagram id="EMqDuIwo52Fa8yJvIK7q" name="Page-1">
    <mxGraphModel dx="1549" dy="825" grid="1" gridSize="10" guides="1" tooltips="1" connect="1" arrows="1" fold="1" page="1" pageScale="1" pageWidth="1169" pageHeight="827" math="0" shadow="0">
      <root>
        <mxCell id="0" />
        <mxCell id="1" parent="0" />
        <mxCell id="-bNwW7Luvv-mgCOFAoei-16" style="edgeStyle=orthogonalEdgeStyle;rounded=0;orthogonalLoop=1;jettySize=auto;html=1;exitX=0.5;exitY=1;exitDx=0;exitDy=0;" edge="1" parent="1" source="-bNwW7Luvv-mgCOFAoei-1" target="-bNwW7Luvv-mgCOFAoei-15">
          <mxGeometry relative="1" as="geometry" />
        </mxCell>
        <mxCell id="-bNwW7Luvv-mgCOFAoei-36" style="edgeStyle=orthogonalEdgeStyle;rounded=0;orthogonalLoop=1;jettySize=auto;html=1;" edge="1" parent="1" source="-bNwW7Luvv-mgCOFAoei-1" target="-bNwW7Luvv-mgCOFAoei-35">
          <mxGeometry relative="1" as="geometry" />
        </mxCell>
        <mxCell id="-bNwW7Luvv-mgCOFAoei-1" value="NRG" style="rounded=0;whiteSpace=wrap;html=1;" vertex="1" parent="1">
          <mxGeometry x="480" y="210" width="120" height="60" as="geometry" />
        </mxCell>
        <mxCell id="-bNwW7Luvv-mgCOFAoei-62" style="edgeStyle=orthogonalEdgeStyle;rounded=0;orthogonalLoop=1;jettySize=auto;html=1;exitX=0;exitY=0.5;exitDx=0;exitDy=0;entryX=1;entryY=0.5;entryDx=0;entryDy=0;entryPerimeter=0;dashed=1;" edge="1" parent="1" source="-bNwW7Luvv-mgCOFAoei-2" target="-bNwW7Luvv-mgCOFAoei-3">
          <mxGeometry relative="1" as="geometry" />
        </mxCell>
        <mxCell id="-bNwW7Luvv-mgCOFAoei-2" value="Pandora" style="rounded=0;whiteSpace=wrap;html=1;" vertex="1" parent="1">
          <mxGeometry x="660" y="670" width="120" height="60" as="geometry" />
        </mxCell>
        <mxCell id="-bNwW7Luvv-mgCOFAoei-3" value="i-Core" style="shape=cylinder3;whiteSpace=wrap;html=1;boundedLbl=1;backgroundOutline=1;size=15;" vertex="1" parent="1">
          <mxGeometry x="510" y="850" width="60" height="80" as="geometry" />
        </mxCell>
        <mxCell id="-bNwW7Luvv-mgCOFAoei-4" value="Aanmaken van Asset.&lt;br&gt;(t/m parent beveiliging)" style="text;html=1;align=center;verticalAlign=middle;resizable=0;points=[];autosize=1;strokeColor=#82b366;fillColor=#d5e8d4;" vertex="1" parent="1">
          <mxGeometry x="620" y="220" width="150" height="40" as="geometry" />
        </mxCell>
        <mxCell id="-bNwW7Luvv-mgCOFAoei-6" style="edgeStyle=orthogonalEdgeStyle;rounded=0;orthogonalLoop=1;jettySize=auto;html=1;entryX=0.5;entryY=0;entryDx=0;entryDy=0;" edge="1" parent="1" source="-bNwW7Luvv-mgCOFAoei-5" target="-bNwW7Luvv-mgCOFAoei-1">
          <mxGeometry relative="1" as="geometry" />
        </mxCell>
        <mxCell id="-bNwW7Luvv-mgCOFAoei-5" value="Aanmaken nieuwe Assets" style="ellipse;whiteSpace=wrap;html=1;" vertex="1" parent="1">
          <mxGeometry x="480" y="50" width="120" height="80" as="geometry" />
        </mxCell>
        <mxCell id="-bNwW7Luvv-mgCOFAoei-11" value="Asset" style="swimlane;fontStyle=0;childLayout=stackLayout;horizontal=1;startSize=30;horizontalStack=0;resizeParent=1;resizeParentMax=0;resizeLast=0;collapsible=1;marginBottom=0;" vertex="1" parent="1">
          <mxGeometry x="810" y="180" width="140" height="90" as="geometry" />
        </mxCell>
        <mxCell id="-bNwW7Luvv-mgCOFAoei-12" value="NRG-id" style="text;strokeColor=none;fillColor=none;align=left;verticalAlign=middle;spacingLeft=4;spacingRight=4;overflow=hidden;points=[[0,0.5],[1,0.5]];portConstraint=eastwest;rotatable=0;" vertex="1" parent="-bNwW7Luvv-mgCOFAoei-11">
          <mxGeometry y="30" width="140" height="30" as="geometry" />
        </mxCell>
        <mxCell id="-bNwW7Luvv-mgCOFAoei-13" value="Functieplaatslabel" style="text;strokeColor=none;fillColor=none;align=left;verticalAlign=middle;spacingLeft=4;spacingRight=4;overflow=hidden;points=[[0,0.5],[1,0.5]];portConstraint=eastwest;rotatable=0;" vertex="1" parent="-bNwW7Luvv-mgCOFAoei-11">
          <mxGeometry y="60" width="140" height="30" as="geometry" />
        </mxCell>
        <mxCell id="-bNwW7Luvv-mgCOFAoei-28" style="edgeStyle=orthogonalEdgeStyle;rounded=0;orthogonalLoop=1;jettySize=auto;html=1;" edge="1" parent="1" source="-bNwW7Luvv-mgCOFAoei-15">
          <mxGeometry relative="1" as="geometry">
            <mxPoint x="540" y="530" as="targetPoint" />
          </mxGeometry>
        </mxCell>
        <mxCell id="-bNwW7Luvv-mgCOFAoei-15" value="NBR" style="rounded=0;whiteSpace=wrap;html=1;" vertex="1" parent="1">
          <mxGeometry x="480" y="370" width="120" height="60" as="geometry" />
        </mxCell>
        <mxCell id="-bNwW7Luvv-mgCOFAoei-17" value="Automatisch naar NBR" style="text;html=1;align=center;verticalAlign=middle;resizable=0;points=[];autosize=1;strokeColor=none;fillColor=none;" vertex="1" parent="1">
          <mxGeometry x="540" y="300" width="150" height="30" as="geometry" />
        </mxCell>
        <mxCell id="-bNwW7Luvv-mgCOFAoei-22" value="Beveiliging" style="swimlane;fontStyle=0;childLayout=stackLayout;horizontal=1;startSize=30;horizontalStack=0;resizeParent=1;resizeParentMax=0;resizeLast=0;collapsible=1;marginBottom=0;" vertex="1" parent="1">
          <mxGeometry x="810" y="350" width="140" height="90" as="geometry" />
        </mxCell>
        <mxCell id="-bNwW7Luvv-mgCOFAoei-23" value="FPL" style="text;strokeColor=none;fillColor=none;align=left;verticalAlign=middle;spacingLeft=4;spacingRight=4;overflow=hidden;points=[[0,0.5],[1,0.5]];portConstraint=eastwest;rotatable=0;" vertex="1" parent="-bNwW7Luvv-mgCOFAoei-22">
          <mxGeometry y="30" width="140" height="30" as="geometry" />
        </mxCell>
        <mxCell id="-bNwW7Luvv-mgCOFAoei-24" value="NBR ID" style="text;strokeColor=none;fillColor=none;align=left;verticalAlign=middle;spacingLeft=4;spacingRight=4;overflow=hidden;points=[[0,0.5],[1,0.5]];portConstraint=eastwest;rotatable=0;" vertex="1" parent="-bNwW7Luvv-mgCOFAoei-22">
          <mxGeometry y="60" width="140" height="30" as="geometry" />
        </mxCell>
        <mxCell id="-bNwW7Luvv-mgCOFAoei-27" value="Aanmaken beveiligingen" style="text;html=1;align=center;verticalAlign=middle;resizable=0;points=[];autosize=1;strokeColor=#82b366;fillColor=#d5e8d4;" vertex="1" parent="1">
          <mxGeometry x="620" y="384" width="150" height="30" as="geometry" />
        </mxCell>
        <mxCell id="-bNwW7Luvv-mgCOFAoei-30" value="" style="edgeStyle=orthogonalEdgeStyle;rounded=0;orthogonalLoop=1;jettySize=auto;html=1;" edge="1" parent="1" source="-bNwW7Luvv-mgCOFAoei-29" target="-bNwW7Luvv-mgCOFAoei-2">
          <mxGeometry relative="1" as="geometry" />
        </mxCell>
        <mxCell id="-bNwW7Luvv-mgCOFAoei-29" value="Kafka" style="rounded=0;whiteSpace=wrap;html=1;" vertex="1" parent="1">
          <mxGeometry x="480" y="530" width="120" height="60" as="geometry" />
        </mxCell>
        <mxCell id="-bNwW7Luvv-mgCOFAoei-32" value="Automatisch verwerken van berichten NBR" style="text;html=1;align=center;verticalAlign=middle;resizable=0;points=[];autosize=1;strokeColor=#d6b656;fillColor=#fff2cc;" vertex="1" parent="1">
          <mxGeometry x="790" y="685" width="250" height="30" as="geometry" />
        </mxCell>
        <mxCell id="-bNwW7Luvv-mgCOFAoei-37" style="edgeStyle=orthogonalEdgeStyle;rounded=0;orthogonalLoop=1;jettySize=auto;html=1;entryX=0;entryY=0.5;entryDx=0;entryDy=0;entryPerimeter=0;" edge="1" parent="1" source="-bNwW7Luvv-mgCOFAoei-35" target="-bNwW7Luvv-mgCOFAoei-3">
          <mxGeometry relative="1" as="geometry" />
        </mxCell>
        <mxCell id="-bNwW7Luvv-mgCOFAoei-35" value="Data verwerking" style="rounded=0;whiteSpace=wrap;html=1;" vertex="1" parent="1">
          <mxGeometry x="340" y="670" width="120" height="60" as="geometry" />
        </mxCell>
        <mxCell id="-bNwW7Luvv-mgCOFAoei-38" value="&lt;font style=&quot;font-size: 12px;&quot;&gt;Handmatig aanmaken van Assets&lt;/font&gt;" style="text;html=1;align=center;verticalAlign=middle;resizable=0;points=[];autosize=1;strokeColor=#82b366;fillColor=#d5e8d4;" vertex="1" parent="1">
          <mxGeometry x="110" y="685" width="200" height="30" as="geometry" />
        </mxCell>
        <mxCell id="-bNwW7Luvv-mgCOFAoei-60" style="edgeStyle=orthogonalEdgeStyle;rounded=0;orthogonalLoop=1;jettySize=auto;html=1;entryX=-0.004;entryY=0.053;entryDx=0;entryDy=0;entryPerimeter=0;" edge="1" parent="1" source="-bNwW7Luvv-mgCOFAoei-45" target="-bNwW7Luvv-mgCOFAoei-59">
          <mxGeometry relative="1" as="geometry" />
        </mxCell>
        <mxCell id="-bNwW7Luvv-mgCOFAoei-61" style="edgeStyle=orthogonalEdgeStyle;rounded=0;orthogonalLoop=1;jettySize=auto;html=1;entryX=0;entryY=0.5;entryDx=0;entryDy=0;" edge="1" parent="1" source="-bNwW7Luvv-mgCOFAoei-45" target="-bNwW7Luvv-mgCOFAoei-54">
          <mxGeometry relative="1" as="geometry" />
        </mxCell>
        <mxCell id="-bNwW7Luvv-mgCOFAoei-45" value="i-CoreÂ Asset" style="swimlane;fontStyle=0;childLayout=stackLayout;horizontal=1;startSize=30;horizontalStack=0;resizeParent=1;resizeParentMax=0;resizeLast=0;collapsible=1;marginBottom=0;" vertex="1" parent="1">
          <mxGeometry x="650" y="850" width="140" height="90" as="geometry">
            <mxRectangle x="650" y="850" width="110" height="30" as="alternateBounds" />
          </mxGeometry>
        </mxCell>
        <mxCell id="-bNwW7Luvv-mgCOFAoei-46" value="iCore-id" style="text;strokeColor=none;fillColor=none;align=left;verticalAlign=middle;spacingLeft=4;spacingRight=4;overflow=hidden;points=[[0,0.5],[1,0.5]];portConstraint=eastwest;rotatable=0;" vertex="1" parent="-bNwW7Luvv-mgCOFAoei-45">
          <mxGeometry y="30" width="140" height="30" as="geometry" />
        </mxCell>
        <mxCell id="-bNwW7Luvv-mgCOFAoei-47" value="NRG-id" style="text;strokeColor=none;fillColor=none;align=left;verticalAlign=middle;spacingLeft=4;spacingRight=4;overflow=hidden;points=[[0,0.5],[1,0.5]];portConstraint=eastwest;rotatable=0;" vertex="1" parent="-bNwW7Luvv-mgCOFAoei-45">
          <mxGeometry y="60" width="140" height="30" as="geometry" />
        </mxCell>
        <mxCell id="-bNwW7Luvv-mgCOFAoei-52" value="i-Core Asset" style="swimlane;fontStyle=0;childLayout=stackLayout;horizontal=1;startSize=30;horizontalStack=0;resizeParent=1;resizeParentMax=0;resizeLast=0;collapsible=1;marginBottom=0;" vertex="1" parent="1">
          <mxGeometry x="790" y="990" width="140" height="120" as="geometry" />
        </mxCell>
        <mxCell id="-bNwW7Luvv-mgCOFAoei-53" value="i-Core-id" style="text;strokeColor=none;fillColor=none;align=left;verticalAlign=middle;spacingLeft=4;spacingRight=4;overflow=hidden;points=[[0,0.5],[1,0.5]];portConstraint=eastwest;rotatable=0;" vertex="1" parent="-bNwW7Luvv-mgCOFAoei-52">
          <mxGeometry y="30" width="140" height="30" as="geometry" />
        </mxCell>
        <mxCell id="-bNwW7Luvv-mgCOFAoei-54" value="NRG-id" style="text;strokeColor=none;fillColor=none;align=left;verticalAlign=middle;spacingLeft=4;spacingRight=4;overflow=hidden;points=[[0,0.5],[1,0.5]];portConstraint=eastwest;rotatable=0;" vertex="1" parent="-bNwW7Luvv-mgCOFAoei-52">
          <mxGeometry y="60" width="140" height="30" as="geometry" />
        </mxCell>
        <mxCell id="-bNwW7Luvv-mgCOFAoei-55" value="Parent-iCore-id" style="text;strokeColor=none;fillColor=none;align=left;verticalAlign=middle;spacingLeft=4;spacingRight=4;overflow=hidden;points=[[0,0.5],[1,0.5]];portConstraint=eastwest;rotatable=0;" vertex="1" parent="-bNwW7Luvv-mgCOFAoei-52">
          <mxGeometry y="90" width="140" height="30" as="geometry" />
        </mxCell>
        <mxCell id="-bNwW7Luvv-mgCOFAoei-56" value="i-CoreBeveiliging" style="swimlane;fontStyle=0;childLayout=stackLayout;horizontal=1;startSize=30;horizontalStack=0;resizeParent=1;resizeParentMax=0;resizeLast=0;collapsible=1;marginBottom=0;" vertex="1" parent="1">
          <mxGeometry x="790" y="1150" width="140" height="120" as="geometry" />
        </mxCell>
        <mxCell id="-bNwW7Luvv-mgCOFAoei-57" value="i-Core-id" style="text;strokeColor=none;fillColor=none;align=left;verticalAlign=middle;spacingLeft=4;spacingRight=4;overflow=hidden;points=[[0,0.5],[1,0.5]];portConstraint=eastwest;rotatable=0;" vertex="1" parent="-bNwW7Luvv-mgCOFAoei-56">
          <mxGeometry y="30" width="140" height="30" as="geometry" />
        </mxCell>
        <mxCell id="-bNwW7Luvv-mgCOFAoei-58" value="NRG-id" style="text;strokeColor=none;fillColor=none;align=left;verticalAlign=middle;spacingLeft=4;spacingRight=4;overflow=hidden;points=[[0,0.5],[1,0.5]];portConstraint=eastwest;rotatable=0;" vertex="1" parent="-bNwW7Luvv-mgCOFAoei-56">
          <mxGeometry y="60" width="140" height="30" as="geometry" />
        </mxCell>
        <mxCell id="-bNwW7Luvv-mgCOFAoei-59" value="Parent-iCore-id" style="text;strokeColor=none;fillColor=none;align=left;verticalAlign=middle;spacingLeft=4;spacingRight=4;overflow=hidden;points=[[0,0.5],[1,0.5]];portConstraint=eastwest;rotatable=0;" vertex="1" parent="-bNwW7Luvv-mgCOFAoei-56">
          <mxGeometry y="90" width="140" height="30" as="geometry" />
        </mxCell>
        <mxCell id="-bNwW7Luvv-mgCOFAoei-63" value="&lt;b&gt;Proces niet in SYNC&lt;/b&gt;" style="text;html=1;align=center;verticalAlign=middle;resizable=0;points=[];autosize=1;strokeColor=#b85450;fillColor=#f8cecc;" vertex="1" parent="1">
          <mxGeometry x="480" y="660" width="140" height="30" as="geometry" />
        </mxCell>
        <mxCell id="-bNwW7Luvv-mgCOFAoei-64" value="Beveiliging" style="swimlane;fontStyle=0;childLayout=stackLayout;horizontal=1;startSize=30;horizontalStack=0;resizeParent=1;resizeParentMax=0;resizeLast=0;collapsible=1;marginBottom=0;" vertex="1" parent="1">
          <mxGeometry x="800" y="1300" width="140" height="90" as="geometry" />
        </mxCell>
        <mxCell id="-bNwW7Luvv-mgCOFAoei-65" value="FPL" style="text;strokeColor=none;fillColor=none;align=left;verticalAlign=middle;spacingLeft=4;spacingRight=4;overflow=hidden;points=[[0,0.5],[1,0.5]];portConstraint=eastwest;rotatable=0;" vertex="1" parent="-bNwW7Luvv-mgCOFAoei-64">
          <mxGeometry y="30" width="140" height="30" as="geometry" />
        </mxCell>
        <mxCell id="-bNwW7Luvv-mgCOFAoei-66" value="NBR ID" style="text;strokeColor=none;fillColor=none;align=left;verticalAlign=middle;spacingLeft=4;spacingRight=4;overflow=hidden;points=[[0,0.5],[1,0.5]];portConstraint=eastwest;rotatable=0;" vertex="1" parent="-bNwW7Luvv-mgCOFAoei-64">
          <mxGeometry y="60" width="140" height="30" as="geometry" />
        </mxCell>
        <mxCell id="-bNwW7Luvv-mgCOFAoei-31" value="Bericht naar Kafka" style="text;html=1;align=center;verticalAlign=middle;resizable=0;points=[];autosize=1;strokeColor=none;fillColor=none;" vertex="1" parent="1">
          <mxGeometry x="540" y="460" width="120" height="30" as="geometry" />
        </mxCell>
      </root>
    </mxGraphModel>
  </diagram>
</mxfile>
